<?xml version="1.0" standalone="no"?><!DOCTYPE svg PUBLIC "-//W3C//DTD SVG 1.1//EN" "http://www.w3.org/Graphics/SVG/1.1/DTD/svg11.dtd"><svg t="1522866244687" class="icon" style="" viewBox="0 0 1024 1024" version="1.1" xmlns="http://www.w3.org/2000/svg" p-id="2996" xmlns:xlink="http://www.w3.org/1999/xlink" width="200" height="200"><defs><style type="text/css"></style></defs><path d="M512 0C229.2 0 0 229.2 0 512s229.2 512 512 512 512-229.2 512-512S794.8 0 512 0z m-40 231c0-22.1 17.9-40 40-40s40 17.9 40 40v369c0 22.1-17.9 40-40 40s-40-17.9-40-40V231z m40 563c-24.9 0-45-20.1-45-45s20.1-45 45-45 45 20.1 45 45c0 24.8-20.1 45-45 45z" p-id="2997" fill="#EB8398"></path></svg>